<mxfile host="app.diagrams.net" agent="Mozilla/5.0 (Windows NT 10.0; Win64; x64; rv:136.0) Gecko/20100101 Firefox/136.0" version="26.1.2">
  <diagram name="Страница — 1" id="ZAYoU3FbNn39I0kdMRvr">
    <mxGraphModel dx="802" dy="1797" grid="1" gridSize="10" guides="1" tooltips="1" connect="1" arrows="1" fold="1" page="1" pageScale="1" pageWidth="827" pageHeight="1169" math="0" shadow="0">
      <root>
        <mxCell id="0" />
        <mxCell id="1" parent="0" />
        <mxCell id="vxYXGXzbiutAw9ZmJoeR-1" value="" style="shape=umlActor;verticalLabelPosition=bottom;verticalAlign=top;html=1;" parent="1" vertex="1">
          <mxGeometry x="95" y="-34" width="30" height="60" as="geometry" />
        </mxCell>
        <mxCell id="vxYXGXzbiutAw9ZmJoeR-2" value="" style="ellipse;shape=umlControl;whiteSpace=wrap;html=1;" parent="1" vertex="1">
          <mxGeometry x="425" y="-54" width="70" height="80" as="geometry" />
        </mxCell>
        <mxCell id="vxYXGXzbiutAw9ZmJoeR-3" value="" style="shape=umlBoundary;whiteSpace=wrap;html=1;" parent="1" vertex="1">
          <mxGeometry x="235" y="-44" width="80" height="70" as="geometry" />
        </mxCell>
        <mxCell id="vxYXGXzbiutAw9ZmJoeR-4" value="" style="ellipse;shape=umlEntity;whiteSpace=wrap;html=1;" parent="1" vertex="1">
          <mxGeometry x="605" y="-44" width="70" height="70" as="geometry" />
        </mxCell>
        <mxCell id="vxYXGXzbiutAw9ZmJoeR-5" value="Интерфейс" style="text;align=center;fontStyle=1;verticalAlign=middle;spacingLeft=3;spacingRight=3;strokeColor=none;rotatable=0;points=[[0,0.5],[1,0.5]];portConstraint=eastwest;html=1;" parent="1" vertex="1">
          <mxGeometry x="245" y="-80" width="80" height="26" as="geometry" />
        </mxCell>
        <mxCell id="vxYXGXzbiutAw9ZmJoeR-6" value="Система" style="text;align=center;fontStyle=1;verticalAlign=middle;spacingLeft=3;spacingRight=3;strokeColor=none;rotatable=0;points=[[0,0.5],[1,0.5]];portConstraint=eastwest;html=1;" parent="1" vertex="1">
          <mxGeometry x="419" y="-80" width="80" height="26" as="geometry" />
        </mxCell>
        <mxCell id="vxYXGXzbiutAw9ZmJoeR-7" value="База данных" style="text;align=center;fontStyle=1;verticalAlign=middle;spacingLeft=3;spacingRight=3;strokeColor=none;rotatable=0;points=[[0,0.5],[1,0.5]];portConstraint=eastwest;html=1;" parent="1" vertex="1">
          <mxGeometry x="600" y="-80" width="80" height="26" as="geometry" />
        </mxCell>
        <mxCell id="vxYXGXzbiutAw9ZmJoeR-8" value="" style="endArrow=none;dashed=1;html=1;rounded=0;" parent="1" source="vxYXGXzbiutAw9ZmJoeR-15" edge="1">
          <mxGeometry width="50" height="50" relative="1" as="geometry">
            <mxPoint x="460" y="740" as="sourcePoint" />
            <mxPoint x="460" y="30" as="targetPoint" />
          </mxGeometry>
        </mxCell>
        <mxCell id="vxYXGXzbiutAw9ZmJoeR-9" value="" style="endArrow=none;dashed=1;html=1;rounded=0;" parent="1" source="vxYXGXzbiutAw9ZmJoeR-19" edge="1">
          <mxGeometry width="50" height="50" relative="1" as="geometry">
            <mxPoint x="640" y="740" as="sourcePoint" />
            <mxPoint x="640" y="40" as="targetPoint" />
          </mxGeometry>
        </mxCell>
        <mxCell id="vxYXGXzbiutAw9ZmJoeR-10" value="" style="endArrow=none;dashed=1;html=1;rounded=0;" parent="1" edge="1">
          <mxGeometry width="50" height="50" relative="1" as="geometry">
            <mxPoint x="110" y="710" as="sourcePoint" />
            <mxPoint x="110" y="30" as="targetPoint" />
          </mxGeometry>
        </mxCell>
        <mxCell id="vxYXGXzbiutAw9ZmJoeR-11" value="Пользователь" style="text;align=center;fontStyle=1;verticalAlign=middle;spacingLeft=3;spacingRight=3;strokeColor=none;rotatable=0;points=[[0,0.5],[1,0.5]];portConstraint=eastwest;html=1;" parent="1" vertex="1">
          <mxGeometry x="70" y="-80" width="80" height="26" as="geometry" />
        </mxCell>
        <mxCell id="vxYXGXzbiutAw9ZmJoeR-12" value="Поиск задач" style="html=1;verticalAlign=bottom;startArrow=oval;startFill=1;endArrow=block;startSize=8;curved=0;rounded=0;" parent="1" edge="1">
          <mxGeometry width="60" relative="1" as="geometry">
            <mxPoint x="110" y="50" as="sourcePoint" />
            <mxPoint x="455" y="50" as="targetPoint" />
          </mxGeometry>
        </mxCell>
        <mxCell id="vxYXGXzbiutAw9ZmJoeR-13" value="" style="endArrow=none;dashed=1;html=1;rounded=0;" parent="1" source="vxYXGXzbiutAw9ZmJoeR-33" edge="1">
          <mxGeometry width="50" height="50" relative="1" as="geometry">
            <mxPoint x="279.69" y="740" as="sourcePoint" />
            <mxPoint x="280" y="30" as="targetPoint" />
          </mxGeometry>
        </mxCell>
        <mxCell id="vxYXGXzbiutAw9ZmJoeR-14" value="" style="endArrow=none;dashed=1;html=1;rounded=0;entryX=0.558;entryY=1.001;entryDx=0;entryDy=0;entryPerimeter=0;" parent="1" source="vxYXGXzbiutAw9ZmJoeR-25" target="vxYXGXzbiutAw9ZmJoeR-15" edge="1">
          <mxGeometry width="50" height="50" relative="1" as="geometry">
            <mxPoint x="460" y="740" as="sourcePoint" />
            <mxPoint x="460" y="160" as="targetPoint" />
          </mxGeometry>
        </mxCell>
        <mxCell id="vxYXGXzbiutAw9ZmJoeR-15" value="" style="html=1;points=[[0,0,0,0,5],[0,1,0,0,-5],[1,0,0,0,5],[1,1,0,0,-5]];perimeter=orthogonalPerimeter;outlineConnect=0;targetShapes=umlLifeline;portConstraint=eastwest;newEdgeStyle={&quot;curved&quot;:0,&quot;rounded&quot;:0};" parent="1" vertex="1">
          <mxGeometry x="455" y="190" width="10" height="120" as="geometry" />
        </mxCell>
        <mxCell id="vxYXGXzbiutAw9ZmJoeR-16" style="edgeStyle=orthogonalEdgeStyle;rounded=0;orthogonalLoop=1;jettySize=auto;html=1;curved=0;exitX=1;exitY=0;exitDx=0;exitDy=5;exitPerimeter=0;" parent="1" source="vxYXGXzbiutAw9ZmJoeR-15" target="vxYXGXzbiutAw9ZmJoeR-15" edge="1">
          <mxGeometry relative="1" as="geometry">
            <Array as="points">
              <mxPoint x="485" y="195" />
              <mxPoint x="485" y="230" />
            </Array>
          </mxGeometry>
        </mxCell>
        <mxCell id="vxYXGXzbiutAw9ZmJoeR-17" value="&lt;div&gt;Формирование&lt;/div&gt;&lt;div&gt;интерфейса&lt;br&gt;&lt;/div&gt;" style="edgeLabel;html=1;align=center;verticalAlign=middle;resizable=0;points=[];" parent="vxYXGXzbiutAw9ZmJoeR-16" vertex="1" connectable="0">
          <mxGeometry x="-0.02" y="2" relative="1" as="geometry">
            <mxPoint x="43" y="-14" as="offset" />
          </mxGeometry>
        </mxCell>
        <mxCell id="vxYXGXzbiutAw9ZmJoeR-18" value="" style="endArrow=none;dashed=1;html=1;rounded=0;entryX=0.558;entryY=1.001;entryDx=0;entryDy=0;entryPerimeter=0;" parent="1" target="vxYXGXzbiutAw9ZmJoeR-19" edge="1">
          <mxGeometry width="50" height="50" relative="1" as="geometry">
            <mxPoint x="640.5799999999999" y="599" as="sourcePoint" />
            <mxPoint x="640" y="160" as="targetPoint" />
          </mxGeometry>
        </mxCell>
        <mxCell id="vxYXGXzbiutAw9ZmJoeR-19" value="" style="html=1;points=[[0,0,0,0,5],[0,1,0,0,-5],[1,0,0,0,5],[1,1,0,0,-5]];perimeter=orthogonalPerimeter;outlineConnect=0;targetShapes=umlLifeline;portConstraint=eastwest;newEdgeStyle={&quot;curved&quot;:0,&quot;rounded&quot;:0};" parent="1" vertex="1">
          <mxGeometry x="635" y="290" width="10" height="60" as="geometry" />
        </mxCell>
        <mxCell id="vxYXGXzbiutAw9ZmJoeR-20" style="edgeStyle=orthogonalEdgeStyle;rounded=0;orthogonalLoop=1;jettySize=auto;html=1;curved=0;exitX=1;exitY=1;exitDx=0;exitDy=-5;exitPerimeter=0;" parent="1" source="vxYXGXzbiutAw9ZmJoeR-15" target="vxYXGXzbiutAw9ZmJoeR-19" edge="1">
          <mxGeometry relative="1" as="geometry">
            <mxPoint x="640" y="305" as="targetPoint" />
            <Array as="points">
              <mxPoint x="465" y="300" />
            </Array>
          </mxGeometry>
        </mxCell>
        <mxCell id="vxYXGXzbiutAw9ZmJoeR-21" value="Передача запроса в базу данных" style="edgeLabel;html=1;align=center;verticalAlign=middle;resizable=0;points=[];" parent="vxYXGXzbiutAw9ZmJoeR-20" vertex="1" connectable="0">
          <mxGeometry x="-0.2309" y="1" relative="1" as="geometry">
            <mxPoint x="19" y="-9" as="offset" />
          </mxGeometry>
        </mxCell>
        <mxCell id="vxYXGXzbiutAw9ZmJoeR-22" style="edgeStyle=orthogonalEdgeStyle;rounded=0;orthogonalLoop=1;jettySize=auto;html=1;curved=0;exitX=1;exitY=0;exitDx=0;exitDy=5;exitPerimeter=0;entryX=1;entryY=1;entryDx=0;entryDy=-5;entryPerimeter=0;" parent="1" source="vxYXGXzbiutAw9ZmJoeR-19" target="vxYXGXzbiutAw9ZmJoeR-19" edge="1">
          <mxGeometry relative="1" as="geometry" />
        </mxCell>
        <mxCell id="vxYXGXzbiutAw9ZmJoeR-23" value="&lt;div&gt;Выполнение&lt;/div&gt;&lt;div&gt;запроса&lt;/div&gt;" style="edgeLabel;html=1;align=center;verticalAlign=middle;resizable=0;points=[];" parent="vxYXGXzbiutAw9ZmJoeR-22" vertex="1" connectable="0">
          <mxGeometry x="0.2054" y="1" relative="1" as="geometry">
            <mxPoint x="34" y="-12" as="offset" />
          </mxGeometry>
        </mxCell>
        <mxCell id="vxYXGXzbiutAw9ZmJoeR-24" value="" style="endArrow=none;dashed=1;html=1;rounded=0;entryX=0.558;entryY=1.001;entryDx=0;entryDy=0;entryPerimeter=0;" parent="1" target="vxYXGXzbiutAw9ZmJoeR-25" edge="1">
          <mxGeometry width="50" height="50" relative="1" as="geometry">
            <mxPoint x="460.5799999999999" y="529" as="sourcePoint" />
            <mxPoint x="461" y="280" as="targetPoint" />
          </mxGeometry>
        </mxCell>
        <mxCell id="vxYXGXzbiutAw9ZmJoeR-25" value="" style="html=1;points=[[0,0,0,0,5],[0,1,0,0,-5],[1,0,0,0,5],[1,1,0,0,-5]];perimeter=orthogonalPerimeter;outlineConnect=0;targetShapes=umlLifeline;portConstraint=eastwest;newEdgeStyle={&quot;curved&quot;:0,&quot;rounded&quot;:0};" parent="1" vertex="1">
          <mxGeometry x="455" y="340" width="10" height="80" as="geometry" />
        </mxCell>
        <mxCell id="vxYXGXzbiutAw9ZmJoeR-26" value="" style="endArrow=block;dashed=1;endFill=0;endSize=12;html=1;rounded=0;entryX=1;entryY=0;entryDx=0;entryDy=5;entryPerimeter=0;" parent="1" source="vxYXGXzbiutAw9ZmJoeR-19" target="vxYXGXzbiutAw9ZmJoeR-25" edge="1">
          <mxGeometry width="160" relative="1" as="geometry">
            <mxPoint x="500" y="370" as="sourcePoint" />
            <mxPoint x="660" y="370" as="targetPoint" />
          </mxGeometry>
        </mxCell>
        <mxCell id="vxYXGXzbiutAw9ZmJoeR-27" value="Передача данных" style="edgeLabel;html=1;align=center;verticalAlign=middle;resizable=0;points=[];" parent="vxYXGXzbiutAw9ZmJoeR-26" vertex="1" connectable="0">
          <mxGeometry x="0.3918" relative="1" as="geometry">
            <mxPoint x="33" y="-15" as="offset" />
          </mxGeometry>
        </mxCell>
        <mxCell id="vxYXGXzbiutAw9ZmJoeR-28" style="edgeStyle=orthogonalEdgeStyle;rounded=0;orthogonalLoop=1;jettySize=auto;html=1;curved=0;exitX=1;exitY=0;exitDx=0;exitDy=5;exitPerimeter=0;entryX=1;entryY=1;entryDx=0;entryDy=-5;entryPerimeter=0;" parent="1" source="vxYXGXzbiutAw9ZmJoeR-25" target="vxYXGXzbiutAw9ZmJoeR-25" edge="1">
          <mxGeometry relative="1" as="geometry">
            <Array as="points">
              <mxPoint x="465" y="360" />
              <mxPoint x="485" y="360" />
              <mxPoint x="485" y="415" />
            </Array>
          </mxGeometry>
        </mxCell>
        <mxCell id="vxYXGXzbiutAw9ZmJoeR-29" value="&lt;div&gt;Обработка&lt;/div&gt;&lt;div&gt;данных&lt;/div&gt;" style="edgeLabel;html=1;align=center;verticalAlign=middle;resizable=0;points=[];" parent="vxYXGXzbiutAw9ZmJoeR-28" vertex="1" connectable="0">
          <mxGeometry x="0.0193" y="-1" relative="1" as="geometry">
            <mxPoint x="36" y="9" as="offset" />
          </mxGeometry>
        </mxCell>
        <mxCell id="vxYXGXzbiutAw9ZmJoeR-30" value="" style="endArrow=block;dashed=1;endFill=0;endSize=12;html=1;rounded=0;exitX=0;exitY=1;exitDx=0;exitDy=-5;exitPerimeter=0;entryX=1;entryY=0;entryDx=0;entryDy=5;entryPerimeter=0;" parent="1" source="vxYXGXzbiutAw9ZmJoeR-25" target="vxYXGXzbiutAw9ZmJoeR-33" edge="1">
          <mxGeometry width="160" relative="1" as="geometry">
            <mxPoint x="440" y="410" as="sourcePoint" />
            <mxPoint x="350" y="430" as="targetPoint" />
          </mxGeometry>
        </mxCell>
        <mxCell id="vxYXGXzbiutAw9ZmJoeR-31" value="&lt;div&gt;Отображение формы&lt;/div&gt;&lt;div&gt;&quot;Результаты поиска&quot;&lt;/div&gt;" style="edgeLabel;html=1;align=center;verticalAlign=middle;resizable=0;points=[];" parent="vxYXGXzbiutAw9ZmJoeR-30" vertex="1" connectable="0">
          <mxGeometry x="0.3918" relative="1" as="geometry">
            <mxPoint x="33" y="-15" as="offset" />
          </mxGeometry>
        </mxCell>
        <mxCell id="vxYXGXzbiutAw9ZmJoeR-32" value="" style="endArrow=none;dashed=1;html=1;rounded=0;entryX=0.558;entryY=1.001;entryDx=0;entryDy=0;entryPerimeter=0;" parent="1" target="vxYXGXzbiutAw9ZmJoeR-33" edge="1">
          <mxGeometry width="50" height="50" relative="1" as="geometry">
            <mxPoint x="280.5799999999999" y="510" as="sourcePoint" />
            <mxPoint x="279.69" y="160" as="targetPoint" />
          </mxGeometry>
        </mxCell>
        <mxCell id="vxYXGXzbiutAw9ZmJoeR-33" value="" style="html=1;points=[[0,0,0,0,5],[0,1,0,0,-5],[1,0,0,0,5],[1,1,0,0,-5]];perimeter=orthogonalPerimeter;outlineConnect=0;targetShapes=umlLifeline;portConstraint=eastwest;newEdgeStyle={&quot;curved&quot;:0,&quot;rounded&quot;:0};" parent="1" vertex="1">
          <mxGeometry x="275" y="410" width="10" height="70" as="geometry" />
        </mxCell>
        <mxCell id="vxYXGXzbiutAw9ZmJoeR-34" style="edgeStyle=orthogonalEdgeStyle;rounded=0;orthogonalLoop=1;jettySize=auto;html=1;curved=0;exitX=1;exitY=0;exitDx=0;exitDy=5;exitPerimeter=0;" parent="1" source="vxYXGXzbiutAw9ZmJoeR-33" target="vxYXGXzbiutAw9ZmJoeR-33" edge="1">
          <mxGeometry relative="1" as="geometry">
            <Array as="points">
              <mxPoint x="285" y="430" />
              <mxPoint x="305" y="430" />
              <mxPoint x="305" y="470" />
            </Array>
          </mxGeometry>
        </mxCell>
        <mxCell id="vxYXGXzbiutAw9ZmJoeR-35" value="&lt;div&gt;Вывод обработанных&lt;/div&gt;&lt;div&gt;данных&lt;br&gt;&lt;/div&gt;" style="edgeLabel;html=1;align=center;verticalAlign=middle;resizable=0;points=[];" parent="vxYXGXzbiutAw9ZmJoeR-34" vertex="1" connectable="0">
          <mxGeometry x="0.437" y="2" relative="1" as="geometry">
            <mxPoint x="63" y="-14" as="offset" />
          </mxGeometry>
        </mxCell>
        <mxCell id="vxYXGXzbiutAw9ZmJoeR-36" value="" style="endArrow=none;dashed=1;html=1;rounded=0;" parent="1" target="vxYXGXzbiutAw9ZmJoeR-33" edge="1">
          <mxGeometry width="50" height="50" relative="1" as="geometry">
            <mxPoint x="279.94000000000005" y="710" as="sourcePoint" />
            <mxPoint x="280.5799999999999" y="590.0799999999999" as="targetPoint" />
          </mxGeometry>
        </mxCell>
        <mxCell id="vxYXGXzbiutAw9ZmJoeR-47" value="" style="endArrow=none;dashed=1;html=1;rounded=0;entryX=0.558;entryY=1.001;entryDx=0;entryDy=0;entryPerimeter=0;" parent="1" edge="1">
          <mxGeometry width="50" height="50" relative="1" as="geometry">
            <mxPoint x="641" y="1159" as="sourcePoint" />
            <mxPoint x="640.5799999999999" y="650.0509999999999" as="targetPoint" />
          </mxGeometry>
        </mxCell>
        <mxCell id="vxYXGXzbiutAw9ZmJoeR-63" value="" style="endArrow=none;dashed=1;html=1;rounded=0;entryX=0.558;entryY=1.001;entryDx=0;entryDy=0;entryPerimeter=0;" parent="1" edge="1">
          <mxGeometry width="50" height="50" relative="1" as="geometry">
            <mxPoint x="111" y="1149" as="sourcePoint" />
            <mxPoint x="110.57999999999993" y="750.04" as="targetPoint" />
          </mxGeometry>
        </mxCell>
        <mxCell id="vxYXGXzbiutAw9ZmJoeR-68" value="" style="endArrow=none;dashed=1;html=1;rounded=0;entryX=0.797;entryY=1.032;entryDx=0;entryDy=0;entryPerimeter=0;" parent="1" edge="1">
          <mxGeometry width="50" height="50" relative="1" as="geometry">
            <mxPoint x="281" y="1169" as="sourcePoint" />
            <mxPoint x="280.41499999999996" y="820.96" as="targetPoint" />
          </mxGeometry>
        </mxCell>
        <mxCell id="vxYXGXzbiutAw9ZmJoeR-70" value="" style="endArrow=none;dashed=1;html=1;rounded=0;" parent="1" edge="1">
          <mxGeometry width="50" height="50" relative="1" as="geometry">
            <mxPoint x="461" y="1159" as="sourcePoint" />
            <mxPoint x="461" y="819" as="targetPoint" />
          </mxGeometry>
        </mxCell>
        <mxCell id="vxYXGXzbiutAw9ZmJoeR-77" value="" style="shape=umlActor;verticalLabelPosition=bottom;verticalAlign=top;html=1;" parent="1" vertex="1">
          <mxGeometry x="105" y="1340" width="30" height="60" as="geometry" />
        </mxCell>
        <mxCell id="vxYXGXzbiutAw9ZmJoeR-78" value="" style="ellipse;shape=umlControl;whiteSpace=wrap;html=1;" parent="1" vertex="1">
          <mxGeometry x="255" y="1320" width="70" height="80" as="geometry" />
        </mxCell>
        <mxCell id="vxYXGXzbiutAw9ZmJoeR-79" value="" style="shape=umlBoundary;whiteSpace=wrap;html=1;" parent="1" vertex="1">
          <mxGeometry x="440" y="1330" width="80" height="70" as="geometry" />
        </mxCell>
        <mxCell id="vxYXGXzbiutAw9ZmJoeR-80" value="" style="ellipse;shape=umlEntity;whiteSpace=wrap;html=1;" parent="1" vertex="1">
          <mxGeometry x="615" y="1330" width="70" height="70" as="geometry" />
        </mxCell>
        <mxCell id="vxYXGXzbiutAw9ZmJoeR-81" value="Пользователь" style="text;html=1;align=center;verticalAlign=middle;whiteSpace=wrap;rounded=0;" parent="1" vertex="1">
          <mxGeometry x="90" y="1290" width="60" height="30" as="geometry" />
        </mxCell>
        <mxCell id="vxYXGXzbiutAw9ZmJoeR-82" value="Telegram бот" style="text;html=1;align=center;verticalAlign=middle;whiteSpace=wrap;rounded=0;" parent="1" vertex="1">
          <mxGeometry x="440" y="1290" width="80" height="30" as="geometry" />
        </mxCell>
        <mxCell id="vxYXGXzbiutAw9ZmJoeR-83" value="Система" style="text;html=1;align=center;verticalAlign=middle;whiteSpace=wrap;rounded=0;" parent="1" vertex="1">
          <mxGeometry x="265" y="1290" width="60" height="30" as="geometry" />
        </mxCell>
        <mxCell id="vxYXGXzbiutAw9ZmJoeR-84" value="База данных" style="text;html=1;align=center;verticalAlign=middle;whiteSpace=wrap;rounded=0;" parent="1" vertex="1">
          <mxGeometry x="610" y="1290" width="75" height="30" as="geometry" />
        </mxCell>
        <mxCell id="vxYXGXzbiutAw9ZmJoeR-85" value="" style="endArrow=none;dashed=1;html=1;rounded=0;" parent="1" source="vxYXGXzbiutAw9ZmJoeR-95" edge="1">
          <mxGeometry width="50" height="50" relative="1" as="geometry">
            <mxPoint x="120" y="2282.3529411764707" as="sourcePoint" />
            <mxPoint x="120" y="1410" as="targetPoint" />
          </mxGeometry>
        </mxCell>
        <mxCell id="vxYXGXzbiutAw9ZmJoeR-86" value="" style="endArrow=none;dashed=1;html=1;rounded=0;" parent="1" source="vxYXGXzbiutAw9ZmJoeR-91" edge="1">
          <mxGeometry width="50" height="50" relative="1" as="geometry">
            <mxPoint x="290" y="2282.3529411764707" as="sourcePoint" />
            <mxPoint x="290" y="1410" as="targetPoint" />
          </mxGeometry>
        </mxCell>
        <mxCell id="vxYXGXzbiutAw9ZmJoeR-87" value="" style="endArrow=none;dashed=1;html=1;rounded=0;" parent="1" source="vxYXGXzbiutAw9ZmJoeR-99" edge="1">
          <mxGeometry width="50" height="50" relative="1" as="geometry">
            <mxPoint x="490" y="2282.3529411764707" as="sourcePoint" />
            <mxPoint x="490" y="1410" as="targetPoint" />
          </mxGeometry>
        </mxCell>
        <mxCell id="vxYXGXzbiutAw9ZmJoeR-88" value="" style="endArrow=none;dashed=1;html=1;rounded=0;" parent="1" source="vxYXGXzbiutAw9ZmJoeR-107" edge="1">
          <mxGeometry width="50" height="50" relative="1" as="geometry">
            <mxPoint x="660" y="2282.3529411764707" as="sourcePoint" />
            <mxPoint x="660" y="1410" as="targetPoint" />
          </mxGeometry>
        </mxCell>
        <mxCell id="vxYXGXzbiutAw9ZmJoeR-89" value="Запрос получения токена" style="html=1;verticalAlign=bottom;startArrow=oval;startFill=1;endArrow=block;startSize=8;curved=0;rounded=0;" parent="1" target="vxYXGXzbiutAw9ZmJoeR-91" edge="1">
          <mxGeometry width="60" relative="1" as="geometry">
            <mxPoint x="120" y="1440" as="sourcePoint" />
            <mxPoint x="250" y="1440" as="targetPoint" />
          </mxGeometry>
        </mxCell>
        <mxCell id="vxYXGXzbiutAw9ZmJoeR-90" value="" style="endArrow=none;dashed=1;html=1;rounded=0;" parent="1" source="vxYXGXzbiutAw9ZmJoeR-103" target="vxYXGXzbiutAw9ZmJoeR-91" edge="1">
          <mxGeometry width="50" height="50" relative="1" as="geometry">
            <mxPoint x="290" y="2282.3529411764707" as="sourcePoint" />
            <mxPoint x="290" y="1410" as="targetPoint" />
          </mxGeometry>
        </mxCell>
        <mxCell id="vxYXGXzbiutAw9ZmJoeR-91" value="" style="html=1;points=[[0,0,0,0,5],[0,1,0,0,-5],[1,0,0,0,5],[1,1,0,0,-5]];perimeter=orthogonalPerimeter;outlineConnect=0;targetShapes=umlLifeline;portConstraint=eastwest;newEdgeStyle={&quot;curved&quot;:0,&quot;rounded&quot;:0};" parent="1" vertex="1">
          <mxGeometry x="285" y="1430" width="10" height="80" as="geometry" />
        </mxCell>
        <mxCell id="vxYXGXzbiutAw9ZmJoeR-92" style="edgeStyle=orthogonalEdgeStyle;rounded=0;orthogonalLoop=1;jettySize=auto;html=1;curved=0;exitX=1;exitY=0;exitDx=0;exitDy=5;exitPerimeter=0;" parent="1" source="vxYXGXzbiutAw9ZmJoeR-91" target="vxYXGXzbiutAw9ZmJoeR-91" edge="1">
          <mxGeometry relative="1" as="geometry">
            <Array as="points">
              <mxPoint x="295" y="1440" />
              <mxPoint x="315" y="1440" />
              <mxPoint x="315" y="1490" />
            </Array>
          </mxGeometry>
        </mxCell>
        <mxCell id="vxYXGXzbiutAw9ZmJoeR-93" value="&lt;div&gt;Генерация&lt;/div&gt;&lt;div&gt;токена&lt;/div&gt;" style="edgeLabel;html=1;align=center;verticalAlign=middle;resizable=0;points=[];" parent="vxYXGXzbiutAw9ZmJoeR-92" vertex="1" connectable="0">
          <mxGeometry x="0.0545" y="3" relative="1" as="geometry">
            <mxPoint x="32" y="-3" as="offset" />
          </mxGeometry>
        </mxCell>
        <mxCell id="vxYXGXzbiutAw9ZmJoeR-94" value="" style="endArrow=none;dashed=1;html=1;rounded=0;" parent="1" target="vxYXGXzbiutAw9ZmJoeR-95" edge="1">
          <mxGeometry width="50" height="50" relative="1" as="geometry">
            <mxPoint x="120" y="2282.3529411764707" as="sourcePoint" />
            <mxPoint x="120" y="1410" as="targetPoint" />
          </mxGeometry>
        </mxCell>
        <mxCell id="vxYXGXzbiutAw9ZmJoeR-95" value="" style="html=1;points=[[0,0,0,0,5],[0,1,0,0,-5],[1,0,0,0,5],[1,1,0,0,-5]];perimeter=orthogonalPerimeter;outlineConnect=0;targetShapes=umlLifeline;portConstraint=eastwest;newEdgeStyle={&quot;curved&quot;:0,&quot;rounded&quot;:0};" parent="1" vertex="1">
          <mxGeometry x="115" y="1500" width="10" height="80" as="geometry" />
        </mxCell>
        <mxCell id="vxYXGXzbiutAw9ZmJoeR-96" value="" style="endArrow=block;dashed=1;endFill=0;endSize=12;html=1;rounded=0;entryX=1;entryY=0;entryDx=0;entryDy=5;entryPerimeter=0;exitX=0;exitY=1;exitDx=0;exitDy=-5;exitPerimeter=0;" parent="1" source="vxYXGXzbiutAw9ZmJoeR-91" target="vxYXGXzbiutAw9ZmJoeR-95" edge="1">
          <mxGeometry width="160" relative="1" as="geometry">
            <mxPoint x="280" y="1490" as="sourcePoint" />
            <mxPoint x="120" y="1490" as="targetPoint" />
          </mxGeometry>
        </mxCell>
        <mxCell id="vxYXGXzbiutAw9ZmJoeR-97" value="Токен" style="edgeLabel;html=1;align=center;verticalAlign=middle;resizable=0;points=[];" parent="vxYXGXzbiutAw9ZmJoeR-96" vertex="1" connectable="0">
          <mxGeometry x="0.3918" relative="1" as="geometry">
            <mxPoint x="33" y="-15" as="offset" />
          </mxGeometry>
        </mxCell>
        <mxCell id="vxYXGXzbiutAw9ZmJoeR-98" value="" style="endArrow=none;dashed=1;html=1;rounded=0;" parent="1" target="vxYXGXzbiutAw9ZmJoeR-99" edge="1">
          <mxGeometry width="50" height="50" relative="1" as="geometry">
            <mxPoint x="490" y="2282.3529411764707" as="sourcePoint" />
            <mxPoint x="490" y="1410" as="targetPoint" />
          </mxGeometry>
        </mxCell>
        <mxCell id="vxYXGXzbiutAw9ZmJoeR-99" value="" style="html=1;points=[[0,0,0,0,5],[0,1,0,0,-5],[1,0,0,0,5],[1,1,0,0,-5]];perimeter=orthogonalPerimeter;outlineConnect=0;targetShapes=umlLifeline;portConstraint=eastwest;newEdgeStyle={&quot;curved&quot;:0,&quot;rounded&quot;:0};" parent="1" vertex="1">
          <mxGeometry x="485" y="1570" width="10" height="80" as="geometry" />
        </mxCell>
        <mxCell id="vxYXGXzbiutAw9ZmJoeR-100" style="edgeStyle=orthogonalEdgeStyle;rounded=0;orthogonalLoop=1;jettySize=auto;html=1;curved=0;exitX=1;exitY=1;exitDx=0;exitDy=-5;exitPerimeter=0;entryX=0;entryY=0;entryDx=0;entryDy=5;entryPerimeter=0;" parent="1" source="vxYXGXzbiutAw9ZmJoeR-95" target="vxYXGXzbiutAw9ZmJoeR-99" edge="1">
          <mxGeometry relative="1" as="geometry" />
        </mxCell>
        <mxCell id="vxYXGXzbiutAw9ZmJoeR-101" value="Отравить сообщение с токеном" style="edgeLabel;html=1;align=center;verticalAlign=middle;resizable=0;points=[];" parent="vxYXGXzbiutAw9ZmJoeR-100" vertex="1" connectable="0">
          <mxGeometry x="0.1635" y="-5" relative="1" as="geometry">
            <mxPoint x="-15" y="-20" as="offset" />
          </mxGeometry>
        </mxCell>
        <mxCell id="vxYXGXzbiutAw9ZmJoeR-102" value="" style="endArrow=none;dashed=1;html=1;rounded=0;" parent="1" target="vxYXGXzbiutAw9ZmJoeR-103" edge="1">
          <mxGeometry width="50" height="50" relative="1" as="geometry">
            <mxPoint x="290" y="2282.3529411764707" as="sourcePoint" />
            <mxPoint x="290" y="1510" as="targetPoint" />
          </mxGeometry>
        </mxCell>
        <mxCell id="vxYXGXzbiutAw9ZmJoeR-103" value="" style="html=1;points=[[0,0,0,0,5],[0,1,0,0,-5],[1,0,0,0,5],[1,1,0,0,-5]];perimeter=orthogonalPerimeter;outlineConnect=0;targetShapes=umlLifeline;portConstraint=eastwest;newEdgeStyle={&quot;curved&quot;:0,&quot;rounded&quot;:0};" parent="1" vertex="1">
          <mxGeometry x="285" y="1640" width="10" height="80" as="geometry" />
        </mxCell>
        <mxCell id="vxYXGXzbiutAw9ZmJoeR-104" style="edgeStyle=orthogonalEdgeStyle;rounded=0;orthogonalLoop=1;jettySize=auto;html=1;curved=0;exitX=0;exitY=1;exitDx=0;exitDy=-5;exitPerimeter=0;entryX=1;entryY=0;entryDx=0;entryDy=5;entryPerimeter=0;" parent="1" source="vxYXGXzbiutAw9ZmJoeR-99" target="vxYXGXzbiutAw9ZmJoeR-103" edge="1">
          <mxGeometry relative="1" as="geometry" />
        </mxCell>
        <mxCell id="vxYXGXzbiutAw9ZmJoeR-105" value="&lt;div&gt;Запрос на привязку аккаунта&lt;/div&gt;&lt;div&gt;Telegram к аккаунту системы&lt;/div&gt;" style="edgeLabel;html=1;align=center;verticalAlign=middle;resizable=0;points=[];" parent="vxYXGXzbiutAw9ZmJoeR-104" vertex="1" connectable="0">
          <mxGeometry x="0.0947" y="3" relative="1" as="geometry">
            <mxPoint x="9" y="-18" as="offset" />
          </mxGeometry>
        </mxCell>
        <mxCell id="vxYXGXzbiutAw9ZmJoeR-106" value="" style="endArrow=none;dashed=1;html=1;rounded=0;" parent="1" target="vxYXGXzbiutAw9ZmJoeR-107" edge="1">
          <mxGeometry width="50" height="50" relative="1" as="geometry">
            <mxPoint x="660" y="2282.3529411764707" as="sourcePoint" />
            <mxPoint x="660" y="1410" as="targetPoint" />
          </mxGeometry>
        </mxCell>
        <mxCell id="vxYXGXzbiutAw9ZmJoeR-107" value="" style="html=1;points=[[0,0,0,0,5],[0,1,0,0,-5],[1,0,0,0,5],[1,1,0,0,-5]];perimeter=orthogonalPerimeter;outlineConnect=0;targetShapes=umlLifeline;portConstraint=eastwest;newEdgeStyle={&quot;curved&quot;:0,&quot;rounded&quot;:0};" parent="1" vertex="1">
          <mxGeometry x="655" y="1710" width="10" height="80" as="geometry" />
        </mxCell>
        <mxCell id="vxYXGXzbiutAw9ZmJoeR-108" style="edgeStyle=orthogonalEdgeStyle;rounded=0;orthogonalLoop=1;jettySize=auto;html=1;curved=0;exitX=1;exitY=1;exitDx=0;exitDy=-5;exitPerimeter=0;entryX=0;entryY=0;entryDx=0;entryDy=5;entryPerimeter=0;" parent="1" source="vxYXGXzbiutAw9ZmJoeR-103" target="vxYXGXzbiutAw9ZmJoeR-107" edge="1">
          <mxGeometry relative="1" as="geometry" />
        </mxCell>
        <mxCell id="vxYXGXzbiutAw9ZmJoeR-109" value="&lt;div&gt;Сохраненить взаимосвязь между&lt;/div&gt;&lt;div&gt;аккаунтом Telegram и аккаунтом системы&lt;/div&gt; " style="edgeLabel;html=1;align=center;verticalAlign=middle;resizable=0;points=[];" parent="vxYXGXzbiutAw9ZmJoeR-108" vertex="1" connectable="0">
          <mxGeometry x="0.2944" y="-3" relative="1" as="geometry">
            <mxPoint x="-38" y="-18" as="offset" />
          </mxGeometry>
        </mxCell>
        <mxCell id="vxYXGXzbiutAw9ZmJoeR-110" style="edgeStyle=orthogonalEdgeStyle;rounded=0;orthogonalLoop=1;jettySize=auto;html=1;curved=0;exitX=1;exitY=0;exitDx=0;exitDy=5;exitPerimeter=0;entryX=1;entryY=1;entryDx=0;entryDy=-5;entryPerimeter=0;" parent="1" source="vxYXGXzbiutAw9ZmJoeR-99" target="vxYXGXzbiutAw9ZmJoeR-99" edge="1">
          <mxGeometry relative="1" as="geometry" />
        </mxCell>
        <mxCell id="vxYXGXzbiutAw9ZmJoeR-111" value="&lt;div&gt;Обработка&lt;/div&gt;&lt;div&gt;сообщения&lt;/div&gt;" style="edgeLabel;html=1;align=center;verticalAlign=middle;resizable=0;points=[];" parent="vxYXGXzbiutAw9ZmJoeR-110" vertex="1" connectable="0">
          <mxGeometry x="-0.1818" y="1" relative="1" as="geometry">
            <mxPoint x="34" y="10" as="offset" />
          </mxGeometry>
        </mxCell>
        <mxCell id="vxYXGXzbiutAw9ZmJoeR-112" style="edgeStyle=orthogonalEdgeStyle;rounded=0;orthogonalLoop=1;jettySize=auto;html=1;curved=0;exitX=1;exitY=0;exitDx=0;exitDy=5;exitPerimeter=0;entryX=1;entryY=1;entryDx=0;entryDy=-5;entryPerimeter=0;" parent="1" source="vxYXGXzbiutAw9ZmJoeR-107" target="vxYXGXzbiutAw9ZmJoeR-107" edge="1">
          <mxGeometry relative="1" as="geometry" />
        </mxCell>
        <mxCell id="vxYXGXzbiutAw9ZmJoeR-113" value="&lt;div&gt;Сохранение&lt;/div&gt;" style="edgeLabel;html=1;align=center;verticalAlign=middle;resizable=0;points=[];" parent="vxYXGXzbiutAw9ZmJoeR-112" vertex="1" connectable="0">
          <mxGeometry x="-0.2364" y="-1" relative="1" as="geometry">
            <mxPoint x="46" y="17" as="offset" />
          </mxGeometry>
        </mxCell>
        <mxCell id="vxYXGXzbiutAw9ZmJoeR-123" value="" style="html=1;points=[[0,0,0,0,5],[0,1,0,0,-5],[1,0,0,0,5],[1,1,0,0,-5]];perimeter=orthogonalPerimeter;outlineConnect=0;targetShapes=umlLifeline;portConstraint=eastwest;newEdgeStyle={&quot;curved&quot;:0,&quot;rounded&quot;:0};" parent="1" vertex="1">
          <mxGeometry x="454.94" y="40" width="10" height="80" as="geometry" />
        </mxCell>
        <mxCell id="vxYXGXzbiutAw9ZmJoeR-124" style="edgeStyle=orthogonalEdgeStyle;rounded=0;orthogonalLoop=1;jettySize=auto;html=1;curved=0;exitX=1;exitY=0;exitDx=0;exitDy=5;exitPerimeter=0;" parent="1" source="vxYXGXzbiutAw9ZmJoeR-123" target="vxYXGXzbiutAw9ZmJoeR-123" edge="1">
          <mxGeometry relative="1" as="geometry" />
        </mxCell>
        <mxCell id="vxYXGXzbiutAw9ZmJoeR-125" value="&lt;div&gt;Формирование&lt;/div&gt;&lt;div&gt;интерфейса&lt;br&gt;&lt;/div&gt;" style="edgeLabel;html=1;align=center;verticalAlign=middle;resizable=0;points=[];" parent="vxYXGXzbiutAw9ZmJoeR-124" vertex="1" connectable="0">
          <mxGeometry x="-0.02" y="2" relative="1" as="geometry">
            <mxPoint x="43" as="offset" />
          </mxGeometry>
        </mxCell>
        <mxCell id="vxYXGXzbiutAw9ZmJoeR-130" value="" style="endArrow=block;dashed=1;endFill=0;endSize=12;html=1;rounded=0;exitX=0;exitY=1;exitDx=0;exitDy=-5;exitPerimeter=0;entryX=1;entryY=0;entryDx=0;entryDy=5;entryPerimeter=0;" parent="1" target="vxYXGXzbiutAw9ZmJoeR-132" edge="1">
          <mxGeometry width="160" relative="1" as="geometry">
            <mxPoint x="454.94" y="115" as="sourcePoint" />
            <mxPoint x="349.94" y="130" as="targetPoint" />
          </mxGeometry>
        </mxCell>
        <mxCell id="vxYXGXzbiutAw9ZmJoeR-131" value="Отображение формы &quot;Поиск&quot;" style="edgeLabel;html=1;align=center;verticalAlign=middle;resizable=0;points=[];" parent="vxYXGXzbiutAw9ZmJoeR-130" vertex="1" connectable="0">
          <mxGeometry x="0.3918" relative="1" as="geometry">
            <mxPoint x="33" y="-15" as="offset" />
          </mxGeometry>
        </mxCell>
        <mxCell id="vxYXGXzbiutAw9ZmJoeR-132" value="" style="html=1;points=[[0,0,0,0,5],[0,1,0,0,-5],[1,0,0,0,5],[1,1,0,0,-5]];perimeter=orthogonalPerimeter;outlineConnect=0;targetShapes=umlLifeline;portConstraint=eastwest;newEdgeStyle={&quot;curved&quot;:0,&quot;rounded&quot;:0};" parent="1" vertex="1">
          <mxGeometry x="274.94" y="110" width="10" height="90" as="geometry" />
        </mxCell>
        <mxCell id="vxYXGXzbiutAw9ZmJoeR-133" style="edgeStyle=orthogonalEdgeStyle;rounded=0;orthogonalLoop=1;jettySize=auto;html=1;curved=0;exitX=1;exitY=0;exitDx=0;exitDy=5;exitPerimeter=0;" parent="1" source="vxYXGXzbiutAw9ZmJoeR-132" target="vxYXGXzbiutAw9ZmJoeR-132" edge="1">
          <mxGeometry relative="1" as="geometry">
            <Array as="points">
              <mxPoint x="285" y="130" />
              <mxPoint x="305" y="130" />
              <mxPoint x="305" y="150" />
            </Array>
            <mxPoint x="340" y="190" as="targetPoint" />
          </mxGeometry>
        </mxCell>
        <mxCell id="vxYXGXzbiutAw9ZmJoeR-134" value="&lt;div&gt;Вывод критериев поиска&lt;/div&gt;" style="edgeLabel;html=1;align=center;verticalAlign=middle;resizable=0;points=[];" parent="vxYXGXzbiutAw9ZmJoeR-133" vertex="1" connectable="0">
          <mxGeometry x="0.437" y="2" relative="1" as="geometry">
            <mxPoint x="63" y="-14" as="offset" />
          </mxGeometry>
        </mxCell>
        <mxCell id="vxYXGXzbiutAw9ZmJoeR-135" style="edgeStyle=orthogonalEdgeStyle;rounded=0;orthogonalLoop=1;jettySize=auto;html=1;curved=0;exitX=1;exitY=0;exitDx=0;exitDy=5;exitPerimeter=0;" parent="1" edge="1">
          <mxGeometry relative="1" as="geometry">
            <Array as="points">
              <mxPoint x="285" y="165" />
              <mxPoint x="305" y="165" />
              <mxPoint x="305" y="185" />
            </Array>
            <mxPoint x="285" y="150" as="sourcePoint" />
            <mxPoint x="285" y="185" as="targetPoint" />
          </mxGeometry>
        </mxCell>
        <mxCell id="vxYXGXzbiutAw9ZmJoeR-136" value="Выбор критериев" style="edgeLabel;html=1;align=center;verticalAlign=middle;resizable=0;points=[];" parent="vxYXGXzbiutAw9ZmJoeR-135" vertex="1" connectable="0">
          <mxGeometry x="0.437" y="2" relative="1" as="geometry">
            <mxPoint x="43" y="-14" as="offset" />
          </mxGeometry>
        </mxCell>
        <mxCell id="vxYXGXzbiutAw9ZmJoeR-137" style="edgeStyle=orthogonalEdgeStyle;rounded=0;orthogonalLoop=1;jettySize=auto;html=1;curved=0;exitX=1;exitY=1;exitDx=0;exitDy=-5;exitPerimeter=0;entryX=0;entryY=0;entryDx=0;entryDy=5;entryPerimeter=0;" parent="1" source="vxYXGXzbiutAw9ZmJoeR-132" target="vxYXGXzbiutAw9ZmJoeR-15" edge="1">
          <mxGeometry relative="1" as="geometry" />
        </mxCell>
        <mxCell id="vxYXGXzbiutAw9ZmJoeR-138" value="Получение результатов поиска" style="edgeLabel;html=1;align=center;verticalAlign=middle;resizable=0;points=[];" parent="vxYXGXzbiutAw9ZmJoeR-137" vertex="1" connectable="0">
          <mxGeometry x="-0.2003" y="5" relative="1" as="geometry">
            <mxPoint x="17" y="20" as="offset" />
          </mxGeometry>
        </mxCell>
        <mxCell id="vxYXGXzbiutAw9ZmJoeR-140" value="" style="html=1;points=[[0,0,0,0,5],[0,1,0,0,-5],[1,0,0,0,5],[1,1,0,0,-5]];perimeter=orthogonalPerimeter;outlineConnect=0;targetShapes=umlLifeline;portConstraint=eastwest;newEdgeStyle={&quot;curved&quot;:0,&quot;rounded&quot;:0};" parent="1" vertex="1">
          <mxGeometry x="105" y="464" width="10" height="80" as="geometry" />
        </mxCell>
        <mxCell id="vxYXGXzbiutAw9ZmJoeR-143" style="edgeStyle=orthogonalEdgeStyle;rounded=0;orthogonalLoop=1;jettySize=auto;html=1;curved=0;exitX=0;exitY=1;exitDx=0;exitDy=-5;exitPerimeter=0;" parent="1" source="vxYXGXzbiutAw9ZmJoeR-33" edge="1">
          <mxGeometry relative="1" as="geometry">
            <mxPoint x="115" y="475" as="targetPoint" />
            <Array as="points">
              <mxPoint x="115" y="475" />
            </Array>
          </mxGeometry>
        </mxCell>
        <mxCell id="vxYXGXzbiutAw9ZmJoeR-144" value="Передача управления" style="edgeLabel;html=1;align=center;verticalAlign=middle;resizable=0;points=[];" parent="vxYXGXzbiutAw9ZmJoeR-143" vertex="1" connectable="0">
          <mxGeometry x="0.0424" y="-9" relative="1" as="geometry">
            <mxPoint as="offset" />
          </mxGeometry>
        </mxCell>
        <mxCell id="FfUGT-OIGw7-xPJQ7lZI-1" value="" style="shape=umlActor;verticalLabelPosition=bottom;verticalAlign=top;html=1;" parent="1" vertex="1">
          <mxGeometry x="933" y="-34" width="30" height="60" as="geometry" />
        </mxCell>
        <mxCell id="FfUGT-OIGw7-xPJQ7lZI-2" value="" style="ellipse;shape=umlControl;whiteSpace=wrap;html=1;" parent="1" vertex="1">
          <mxGeometry x="1263" y="-54" width="70" height="80" as="geometry" />
        </mxCell>
        <mxCell id="FfUGT-OIGw7-xPJQ7lZI-3" value="" style="shape=umlBoundary;whiteSpace=wrap;html=1;" parent="1" vertex="1">
          <mxGeometry x="1073" y="-44" width="80" height="70" as="geometry" />
        </mxCell>
        <mxCell id="FfUGT-OIGw7-xPJQ7lZI-4" value="" style="ellipse;shape=umlEntity;whiteSpace=wrap;html=1;" parent="1" vertex="1">
          <mxGeometry x="1443" y="-44" width="70" height="70" as="geometry" />
        </mxCell>
        <mxCell id="FfUGT-OIGw7-xPJQ7lZI-5" value="SearchActivity" style="text;align=center;fontStyle=1;verticalAlign=middle;spacingLeft=3;spacingRight=3;strokeColor=none;rotatable=0;points=[[0,0.5],[1,0.5]];portConstraint=eastwest;html=1;" parent="1" vertex="1">
          <mxGeometry x="1083" y="-80" width="80" height="26" as="geometry" />
        </mxCell>
        <mxCell id="FfUGT-OIGw7-xPJQ7lZI-6" value="TaskController" style="text;align=center;fontStyle=1;verticalAlign=middle;spacingLeft=3;spacingRight=3;strokeColor=none;rotatable=0;points=[[0,0.5],[1,0.5]];portConstraint=eastwest;html=1;" parent="1" vertex="1">
          <mxGeometry x="1257" y="-80" width="80" height="26" as="geometry" />
        </mxCell>
        <mxCell id="FfUGT-OIGw7-xPJQ7lZI-7" value="TaskService" style="text;align=center;fontStyle=1;verticalAlign=middle;spacingLeft=3;spacingRight=3;strokeColor=none;rotatable=0;points=[[0,0.5],[1,0.5]];portConstraint=eastwest;html=1;" parent="1" vertex="1">
          <mxGeometry x="1438" y="-80" width="80" height="26" as="geometry" />
        </mxCell>
        <mxCell id="FfUGT-OIGw7-xPJQ7lZI-8" value="" style="endArrow=none;dashed=1;html=1;rounded=0;" parent="1" source="FfUGT-OIGw7-xPJQ7lZI-15" edge="1">
          <mxGeometry width="50" height="50" relative="1" as="geometry">
            <mxPoint x="1298" y="740" as="sourcePoint" />
            <mxPoint x="1298" y="30" as="targetPoint" />
          </mxGeometry>
        </mxCell>
        <mxCell id="FfUGT-OIGw7-xPJQ7lZI-9" value="" style="endArrow=none;dashed=1;html=1;rounded=0;" parent="1" source="FfUGT-OIGw7-xPJQ7lZI-19" edge="1">
          <mxGeometry width="50" height="50" relative="1" as="geometry">
            <mxPoint x="1478" y="740" as="sourcePoint" />
            <mxPoint x="1478" y="40" as="targetPoint" />
          </mxGeometry>
        </mxCell>
        <mxCell id="FfUGT-OIGw7-xPJQ7lZI-10" value="" style="endArrow=none;dashed=1;html=1;rounded=0;" parent="1" edge="1">
          <mxGeometry width="50" height="50" relative="1" as="geometry">
            <mxPoint x="948" y="710" as="sourcePoint" />
            <mxPoint x="948" y="30" as="targetPoint" />
          </mxGeometry>
        </mxCell>
        <mxCell id="FfUGT-OIGw7-xPJQ7lZI-11" value="User" style="text;align=center;fontStyle=1;verticalAlign=middle;spacingLeft=3;spacingRight=3;strokeColor=none;rotatable=0;points=[[0,0.5],[1,0.5]];portConstraint=eastwest;html=1;" parent="1" vertex="1">
          <mxGeometry x="908" y="-80" width="80" height="26" as="geometry" />
        </mxCell>
        <mxCell id="FfUGT-OIGw7-xPJQ7lZI-12" value="navigator.navigate(SEARCH)" style="html=1;verticalAlign=bottom;startArrow=oval;startFill=1;endArrow=block;startSize=8;curved=0;rounded=0;" parent="1" edge="1">
          <mxGeometry width="60" relative="1" as="geometry">
            <mxPoint x="948" y="50" as="sourcePoint" />
            <mxPoint x="1293" y="50" as="targetPoint" />
          </mxGeometry>
        </mxCell>
        <mxCell id="FfUGT-OIGw7-xPJQ7lZI-13" value="" style="endArrow=none;dashed=1;html=1;rounded=0;" parent="1" source="FfUGT-OIGw7-xPJQ7lZI-33" edge="1">
          <mxGeometry width="50" height="50" relative="1" as="geometry">
            <mxPoint x="1117.69" y="740" as="sourcePoint" />
            <mxPoint x="1118" y="30" as="targetPoint" />
          </mxGeometry>
        </mxCell>
        <mxCell id="FfUGT-OIGw7-xPJQ7lZI-14" value="" style="endArrow=none;dashed=1;html=1;rounded=0;entryX=0.558;entryY=1.001;entryDx=0;entryDy=0;entryPerimeter=0;" parent="1" source="FfUGT-OIGw7-xPJQ7lZI-25" target="FfUGT-OIGw7-xPJQ7lZI-15" edge="1">
          <mxGeometry width="50" height="50" relative="1" as="geometry">
            <mxPoint x="1298" y="740" as="sourcePoint" />
            <mxPoint x="1298" y="160" as="targetPoint" />
          </mxGeometry>
        </mxCell>
        <mxCell id="FfUGT-OIGw7-xPJQ7lZI-15" value="" style="html=1;points=[[0,0,0,0,5],[0,1,0,0,-5],[1,0,0,0,5],[1,1,0,0,-5]];perimeter=orthogonalPerimeter;outlineConnect=0;targetShapes=umlLifeline;portConstraint=eastwest;newEdgeStyle={&quot;curved&quot;:0,&quot;rounded&quot;:0};" parent="1" vertex="1">
          <mxGeometry x="1293" y="190" width="10" height="90" as="geometry" />
        </mxCell>
        <mxCell id="FfUGT-OIGw7-xPJQ7lZI-16" style="edgeStyle=orthogonalEdgeStyle;rounded=0;orthogonalLoop=1;jettySize=auto;html=1;curved=0;exitX=1;exitY=0;exitDx=0;exitDy=5;exitPerimeter=0;" parent="1" source="FfUGT-OIGw7-xPJQ7lZI-15" target="FfUGT-OIGw7-xPJQ7lZI-15" edge="1">
          <mxGeometry relative="1" as="geometry" />
        </mxCell>
        <mxCell id="FfUGT-OIGw7-xPJQ7lZI-17" value="SearchResultScreen()" style="edgeLabel;html=1;align=center;verticalAlign=middle;resizable=0;points=[];" parent="FfUGT-OIGw7-xPJQ7lZI-16" vertex="1" connectable="0">
          <mxGeometry x="-0.02" y="2" relative="1" as="geometry">
            <mxPoint x="55" as="offset" />
          </mxGeometry>
        </mxCell>
        <mxCell id="FfUGT-OIGw7-xPJQ7lZI-18" value="" style="endArrow=none;dashed=1;html=1;rounded=0;entryX=0.558;entryY=1.001;entryDx=0;entryDy=0;entryPerimeter=0;" parent="1" target="FfUGT-OIGw7-xPJQ7lZI-19" edge="1">
          <mxGeometry width="50" height="50" relative="1" as="geometry">
            <mxPoint x="1478.58" y="599" as="sourcePoint" />
            <mxPoint x="1478" y="160" as="targetPoint" />
          </mxGeometry>
        </mxCell>
        <mxCell id="FfUGT-OIGw7-xPJQ7lZI-19" value="" style="html=1;points=[[0,0,0,0,5],[0,1,0,0,-5],[1,0,0,0,5],[1,1,0,0,-5]];perimeter=orthogonalPerimeter;outlineConnect=0;targetShapes=umlLifeline;portConstraint=eastwest;newEdgeStyle={&quot;curved&quot;:0,&quot;rounded&quot;:0};" parent="1" vertex="1">
          <mxGeometry x="1473" y="270" width="10" height="80" as="geometry" />
        </mxCell>
        <mxCell id="FfUGT-OIGw7-xPJQ7lZI-20" style="edgeStyle=orthogonalEdgeStyle;rounded=0;orthogonalLoop=1;jettySize=auto;html=1;curved=0;exitX=1;exitY=1;exitDx=0;exitDy=-5;exitPerimeter=0;entryX=0;entryY=0;entryDx=0;entryDy=5;entryPerimeter=0;" parent="1" source="FfUGT-OIGw7-xPJQ7lZI-15" target="FfUGT-OIGw7-xPJQ7lZI-19" edge="1">
          <mxGeometry relative="1" as="geometry" />
        </mxCell>
        <mxCell id="FfUGT-OIGw7-xPJQ7lZI-21" value="taskService.get(params)" style="edgeLabel;html=1;align=center;verticalAlign=middle;resizable=0;points=[];" parent="FfUGT-OIGw7-xPJQ7lZI-20" vertex="1" connectable="0">
          <mxGeometry x="-0.2309" y="1" relative="1" as="geometry">
            <mxPoint x="19" y="-14" as="offset" />
          </mxGeometry>
        </mxCell>
        <mxCell id="FfUGT-OIGw7-xPJQ7lZI-22" style="edgeStyle=orthogonalEdgeStyle;rounded=0;orthogonalLoop=1;jettySize=auto;html=1;curved=0;exitX=1;exitY=0;exitDx=0;exitDy=5;exitPerimeter=0;entryX=1;entryY=1;entryDx=0;entryDy=-5;entryPerimeter=0;" parent="1" source="FfUGT-OIGw7-xPJQ7lZI-19" target="FfUGT-OIGw7-xPJQ7lZI-19" edge="1">
          <mxGeometry relative="1" as="geometry" />
        </mxCell>
        <mxCell id="FfUGT-OIGw7-xPJQ7lZI-23" value="taskRepository.getBy(params)" style="edgeLabel;html=1;align=center;verticalAlign=middle;resizable=0;points=[];" parent="FfUGT-OIGw7-xPJQ7lZI-22" vertex="1" connectable="0">
          <mxGeometry x="0.2054" y="1" relative="1" as="geometry">
            <mxPoint x="76" y="-11" as="offset" />
          </mxGeometry>
        </mxCell>
        <mxCell id="FfUGT-OIGw7-xPJQ7lZI-24" value="" style="endArrow=none;dashed=1;html=1;rounded=0;entryX=0.558;entryY=1.001;entryDx=0;entryDy=0;entryPerimeter=0;" parent="1" target="FfUGT-OIGw7-xPJQ7lZI-25" edge="1">
          <mxGeometry width="50" height="50" relative="1" as="geometry">
            <mxPoint x="1298.58" y="529" as="sourcePoint" />
            <mxPoint x="1299" y="280" as="targetPoint" />
          </mxGeometry>
        </mxCell>
        <mxCell id="FfUGT-OIGw7-xPJQ7lZI-25" value="" style="html=1;points=[[0,0,0,0,5],[0,1,0,0,-5],[1,0,0,0,5],[1,1,0,0,-5]];perimeter=orthogonalPerimeter;outlineConnect=0;targetShapes=umlLifeline;portConstraint=eastwest;newEdgeStyle={&quot;curved&quot;:0,&quot;rounded&quot;:0};" parent="1" vertex="1">
          <mxGeometry x="1293" y="340" width="10" height="80" as="geometry" />
        </mxCell>
        <mxCell id="FfUGT-OIGw7-xPJQ7lZI-26" value="" style="endArrow=block;dashed=1;endFill=0;endSize=12;html=1;rounded=0;entryX=1;entryY=0;entryDx=0;entryDy=5;entryPerimeter=0;" parent="1" source="FfUGT-OIGw7-xPJQ7lZI-19" target="FfUGT-OIGw7-xPJQ7lZI-25" edge="1">
          <mxGeometry width="160" relative="1" as="geometry">
            <mxPoint x="1338" y="370" as="sourcePoint" />
            <mxPoint x="1498" y="370" as="targetPoint" />
          </mxGeometry>
        </mxCell>
        <mxCell id="FfUGT-OIGw7-xPJQ7lZI-27" value="List&amp;lt;Task&amp;gt;(tasks)" style="edgeLabel;html=1;align=center;verticalAlign=middle;resizable=0;points=[];" parent="FfUGT-OIGw7-xPJQ7lZI-26" vertex="1" connectable="0">
          <mxGeometry x="0.3918" relative="1" as="geometry">
            <mxPoint x="33" y="-15" as="offset" />
          </mxGeometry>
        </mxCell>
        <mxCell id="FfUGT-OIGw7-xPJQ7lZI-28" style="edgeStyle=orthogonalEdgeStyle;rounded=0;orthogonalLoop=1;jettySize=auto;html=1;curved=0;exitX=1;exitY=0;exitDx=0;exitDy=5;exitPerimeter=0;entryX=1;entryY=1;entryDx=0;entryDy=-5;entryPerimeter=0;" parent="1" source="FfUGT-OIGw7-xPJQ7lZI-25" target="FfUGT-OIGw7-xPJQ7lZI-25" edge="1">
          <mxGeometry relative="1" as="geometry">
            <Array as="points">
              <mxPoint x="1303" y="360" />
              <mxPoint x="1323" y="360" />
              <mxPoint x="1323" y="415" />
            </Array>
          </mxGeometry>
        </mxCell>
        <mxCell id="FfUGT-OIGw7-xPJQ7lZI-29" value="handle(tasks)" style="edgeLabel;html=1;align=center;verticalAlign=middle;resizable=0;points=[];" parent="FfUGT-OIGw7-xPJQ7lZI-28" vertex="1" connectable="0">
          <mxGeometry x="0.0193" y="-1" relative="1" as="geometry">
            <mxPoint x="36" y="9" as="offset" />
          </mxGeometry>
        </mxCell>
        <mxCell id="FfUGT-OIGw7-xPJQ7lZI-30" value="" style="endArrow=block;dashed=1;endFill=0;endSize=12;html=1;rounded=0;exitX=0;exitY=1;exitDx=0;exitDy=-5;exitPerimeter=0;entryX=1;entryY=0;entryDx=0;entryDy=5;entryPerimeter=0;" parent="1" source="FfUGT-OIGw7-xPJQ7lZI-25" target="FfUGT-OIGw7-xPJQ7lZI-33" edge="1">
          <mxGeometry width="160" relative="1" as="geometry">
            <mxPoint x="1278" y="410" as="sourcePoint" />
            <mxPoint x="1188" y="430" as="targetPoint" />
          </mxGeometry>
        </mxCell>
        <mxCell id="FfUGT-OIGw7-xPJQ7lZI-31" value="bindTasksToResultScreen(tasks)" style="edgeLabel;html=1;align=center;verticalAlign=middle;resizable=0;points=[];" parent="FfUGT-OIGw7-xPJQ7lZI-30" vertex="1" connectable="0">
          <mxGeometry x="0.3918" relative="1" as="geometry">
            <mxPoint x="33" y="-15" as="offset" />
          </mxGeometry>
        </mxCell>
        <mxCell id="FfUGT-OIGw7-xPJQ7lZI-32" value="" style="endArrow=none;dashed=1;html=1;rounded=0;entryX=0.558;entryY=1.001;entryDx=0;entryDy=0;entryPerimeter=0;" parent="1" target="FfUGT-OIGw7-xPJQ7lZI-33" edge="1">
          <mxGeometry width="50" height="50" relative="1" as="geometry">
            <mxPoint x="1118.58" y="510" as="sourcePoint" />
            <mxPoint x="1117.69" y="160" as="targetPoint" />
          </mxGeometry>
        </mxCell>
        <mxCell id="FfUGT-OIGw7-xPJQ7lZI-33" value="" style="html=1;points=[[0,0,0,0,5],[0,1,0,0,-5],[1,0,0,0,5],[1,1,0,0,-5]];perimeter=orthogonalPerimeter;outlineConnect=0;targetShapes=umlLifeline;portConstraint=eastwest;newEdgeStyle={&quot;curved&quot;:0,&quot;rounded&quot;:0};" parent="1" vertex="1">
          <mxGeometry x="1113" y="410" width="10" height="70" as="geometry" />
        </mxCell>
        <mxCell id="FfUGT-OIGw7-xPJQ7lZI-34" style="edgeStyle=orthogonalEdgeStyle;rounded=0;orthogonalLoop=1;jettySize=auto;html=1;curved=0;exitX=1;exitY=0;exitDx=0;exitDy=5;exitPerimeter=0;" parent="1" source="FfUGT-OIGw7-xPJQ7lZI-33" target="FfUGT-OIGw7-xPJQ7lZI-33" edge="1">
          <mxGeometry relative="1" as="geometry">
            <Array as="points">
              <mxPoint x="1123" y="430" />
              <mxPoint x="1143" y="430" />
              <mxPoint x="1143" y="470" />
            </Array>
          </mxGeometry>
        </mxCell>
        <mxCell id="FfUGT-OIGw7-xPJQ7lZI-35" value="SearchResultScreenView()" style="edgeLabel;html=1;align=center;verticalAlign=middle;resizable=0;points=[];" parent="FfUGT-OIGw7-xPJQ7lZI-34" vertex="1" connectable="0">
          <mxGeometry x="0.437" y="2" relative="1" as="geometry">
            <mxPoint x="65" y="-14" as="offset" />
          </mxGeometry>
        </mxCell>
        <mxCell id="FfUGT-OIGw7-xPJQ7lZI-36" value="" style="endArrow=none;dashed=1;html=1;rounded=0;" parent="1" target="FfUGT-OIGw7-xPJQ7lZI-33" edge="1">
          <mxGeometry width="50" height="50" relative="1" as="geometry">
            <mxPoint x="1117.94" y="710" as="sourcePoint" />
            <mxPoint x="1118.58" y="590.0799999999999" as="targetPoint" />
          </mxGeometry>
        </mxCell>
        <mxCell id="FfUGT-OIGw7-xPJQ7lZI-43" value="" style="endArrow=none;dashed=1;html=1;rounded=0;entryX=0.558;entryY=1.001;entryDx=0;entryDy=0;entryPerimeter=0;" parent="1" edge="1">
          <mxGeometry width="50" height="50" relative="1" as="geometry">
            <mxPoint x="1479" y="1159" as="sourcePoint" />
            <mxPoint x="1478.58" y="650.0509999999999" as="targetPoint" />
          </mxGeometry>
        </mxCell>
        <mxCell id="FfUGT-OIGw7-xPJQ7lZI-49" value="" style="endArrow=none;dashed=1;html=1;rounded=0;entryX=0.558;entryY=1.001;entryDx=0;entryDy=0;entryPerimeter=0;" parent="1" edge="1">
          <mxGeometry width="50" height="50" relative="1" as="geometry">
            <mxPoint x="1299" y="1170" as="sourcePoint" />
            <mxPoint x="1298.58" y="720.0799999999999" as="targetPoint" />
          </mxGeometry>
        </mxCell>
        <mxCell id="FfUGT-OIGw7-xPJQ7lZI-64" value="" style="endArrow=none;dashed=1;html=1;rounded=0;entryX=0.797;entryY=1.032;entryDx=0;entryDy=0;entryPerimeter=0;" parent="1" edge="1">
          <mxGeometry width="50" height="50" relative="1" as="geometry">
            <mxPoint x="1119" y="1169" as="sourcePoint" />
            <mxPoint x="1118.415" y="820.96" as="targetPoint" />
          </mxGeometry>
        </mxCell>
        <mxCell id="FfUGT-OIGw7-xPJQ7lZI-66" value="" style="shape=umlActor;verticalLabelPosition=bottom;verticalAlign=top;html=1;" parent="1" vertex="1">
          <mxGeometry x="943" y="1340" width="30" height="60" as="geometry" />
        </mxCell>
        <mxCell id="FfUGT-OIGw7-xPJQ7lZI-67" value="" style="ellipse;shape=umlControl;whiteSpace=wrap;html=1;" parent="1" vertex="1">
          <mxGeometry x="1093" y="1320" width="70" height="80" as="geometry" />
        </mxCell>
        <mxCell id="FfUGT-OIGw7-xPJQ7lZI-68" value="" style="shape=umlBoundary;whiteSpace=wrap;html=1;" parent="1" vertex="1">
          <mxGeometry x="1278" y="1330" width="80" height="70" as="geometry" />
        </mxCell>
        <mxCell id="FfUGT-OIGw7-xPJQ7lZI-69" value="" style="ellipse;shape=umlEntity;whiteSpace=wrap;html=1;" parent="1" vertex="1">
          <mxGeometry x="1453" y="1330" width="70" height="70" as="geometry" />
        </mxCell>
        <mxCell id="FfUGT-OIGw7-xPJQ7lZI-70" value="Пользователь" style="text;html=1;align=center;verticalAlign=middle;whiteSpace=wrap;rounded=0;" parent="1" vertex="1">
          <mxGeometry x="928" y="1290" width="60" height="30" as="geometry" />
        </mxCell>
        <mxCell id="FfUGT-OIGw7-xPJQ7lZI-71" value="Telegram бот" style="text;html=1;align=center;verticalAlign=middle;whiteSpace=wrap;rounded=0;" parent="1" vertex="1">
          <mxGeometry x="1278" y="1290" width="80" height="30" as="geometry" />
        </mxCell>
        <mxCell id="FfUGT-OIGw7-xPJQ7lZI-72" value="Система" style="text;html=1;align=center;verticalAlign=middle;whiteSpace=wrap;rounded=0;" parent="1" vertex="1">
          <mxGeometry x="1103" y="1290" width="60" height="30" as="geometry" />
        </mxCell>
        <mxCell id="FfUGT-OIGw7-xPJQ7lZI-73" value="База данных" style="text;html=1;align=center;verticalAlign=middle;whiteSpace=wrap;rounded=0;" parent="1" vertex="1">
          <mxGeometry x="1448" y="1290" width="75" height="30" as="geometry" />
        </mxCell>
        <mxCell id="FfUGT-OIGw7-xPJQ7lZI-74" value="" style="endArrow=none;dashed=1;html=1;rounded=0;" parent="1" source="FfUGT-OIGw7-xPJQ7lZI-84" edge="1">
          <mxGeometry width="50" height="50" relative="1" as="geometry">
            <mxPoint x="958" y="2282.3529411764707" as="sourcePoint" />
            <mxPoint x="958" y="1410" as="targetPoint" />
          </mxGeometry>
        </mxCell>
        <mxCell id="FfUGT-OIGw7-xPJQ7lZI-75" value="" style="endArrow=none;dashed=1;html=1;rounded=0;" parent="1" source="FfUGT-OIGw7-xPJQ7lZI-80" edge="1">
          <mxGeometry width="50" height="50" relative="1" as="geometry">
            <mxPoint x="1128" y="2282.3529411764707" as="sourcePoint" />
            <mxPoint x="1128" y="1410" as="targetPoint" />
          </mxGeometry>
        </mxCell>
        <mxCell id="FfUGT-OIGw7-xPJQ7lZI-76" value="" style="endArrow=none;dashed=1;html=1;rounded=0;" parent="1" source="FfUGT-OIGw7-xPJQ7lZI-88" edge="1">
          <mxGeometry width="50" height="50" relative="1" as="geometry">
            <mxPoint x="1328" y="2282.3529411764707" as="sourcePoint" />
            <mxPoint x="1328" y="1410" as="targetPoint" />
          </mxGeometry>
        </mxCell>
        <mxCell id="FfUGT-OIGw7-xPJQ7lZI-77" value="" style="endArrow=none;dashed=1;html=1;rounded=0;" parent="1" source="FfUGT-OIGw7-xPJQ7lZI-96" edge="1">
          <mxGeometry width="50" height="50" relative="1" as="geometry">
            <mxPoint x="1498" y="2282.3529411764707" as="sourcePoint" />
            <mxPoint x="1498" y="1410" as="targetPoint" />
          </mxGeometry>
        </mxCell>
        <mxCell id="FfUGT-OIGw7-xPJQ7lZI-78" value="Запрос получения токена" style="html=1;verticalAlign=bottom;startArrow=oval;startFill=1;endArrow=block;startSize=8;curved=0;rounded=0;" parent="1" target="FfUGT-OIGw7-xPJQ7lZI-80" edge="1">
          <mxGeometry width="60" relative="1" as="geometry">
            <mxPoint x="958" y="1440" as="sourcePoint" />
            <mxPoint x="1088" y="1440" as="targetPoint" />
          </mxGeometry>
        </mxCell>
        <mxCell id="FfUGT-OIGw7-xPJQ7lZI-79" value="" style="endArrow=none;dashed=1;html=1;rounded=0;" parent="1" source="FfUGT-OIGw7-xPJQ7lZI-92" target="FfUGT-OIGw7-xPJQ7lZI-80" edge="1">
          <mxGeometry width="50" height="50" relative="1" as="geometry">
            <mxPoint x="1128" y="2282.3529411764707" as="sourcePoint" />
            <mxPoint x="1128" y="1410" as="targetPoint" />
          </mxGeometry>
        </mxCell>
        <mxCell id="FfUGT-OIGw7-xPJQ7lZI-80" value="" style="html=1;points=[[0,0,0,0,5],[0,1,0,0,-5],[1,0,0,0,5],[1,1,0,0,-5]];perimeter=orthogonalPerimeter;outlineConnect=0;targetShapes=umlLifeline;portConstraint=eastwest;newEdgeStyle={&quot;curved&quot;:0,&quot;rounded&quot;:0};" parent="1" vertex="1">
          <mxGeometry x="1123" y="1430" width="10" height="80" as="geometry" />
        </mxCell>
        <mxCell id="FfUGT-OIGw7-xPJQ7lZI-81" style="edgeStyle=orthogonalEdgeStyle;rounded=0;orthogonalLoop=1;jettySize=auto;html=1;curved=0;exitX=1;exitY=0;exitDx=0;exitDy=5;exitPerimeter=0;" parent="1" source="FfUGT-OIGw7-xPJQ7lZI-80" target="FfUGT-OIGw7-xPJQ7lZI-80" edge="1">
          <mxGeometry relative="1" as="geometry">
            <Array as="points">
              <mxPoint x="1133" y="1440" />
              <mxPoint x="1153" y="1440" />
              <mxPoint x="1153" y="1490" />
            </Array>
          </mxGeometry>
        </mxCell>
        <mxCell id="FfUGT-OIGw7-xPJQ7lZI-82" value="&lt;div&gt;Генерация&lt;/div&gt;&lt;div&gt;токена&lt;/div&gt;" style="edgeLabel;html=1;align=center;verticalAlign=middle;resizable=0;points=[];" parent="FfUGT-OIGw7-xPJQ7lZI-81" vertex="1" connectable="0">
          <mxGeometry x="0.0545" y="3" relative="1" as="geometry">
            <mxPoint x="32" y="-3" as="offset" />
          </mxGeometry>
        </mxCell>
        <mxCell id="FfUGT-OIGw7-xPJQ7lZI-83" value="" style="endArrow=none;dashed=1;html=1;rounded=0;" parent="1" target="FfUGT-OIGw7-xPJQ7lZI-84" edge="1">
          <mxGeometry width="50" height="50" relative="1" as="geometry">
            <mxPoint x="958" y="2282.3529411764707" as="sourcePoint" />
            <mxPoint x="958" y="1410" as="targetPoint" />
          </mxGeometry>
        </mxCell>
        <mxCell id="FfUGT-OIGw7-xPJQ7lZI-84" value="" style="html=1;points=[[0,0,0,0,5],[0,1,0,0,-5],[1,0,0,0,5],[1,1,0,0,-5]];perimeter=orthogonalPerimeter;outlineConnect=0;targetShapes=umlLifeline;portConstraint=eastwest;newEdgeStyle={&quot;curved&quot;:0,&quot;rounded&quot;:0};" parent="1" vertex="1">
          <mxGeometry x="953" y="1500" width="10" height="80" as="geometry" />
        </mxCell>
        <mxCell id="FfUGT-OIGw7-xPJQ7lZI-85" value="" style="endArrow=block;dashed=1;endFill=0;endSize=12;html=1;rounded=0;entryX=1;entryY=0;entryDx=0;entryDy=5;entryPerimeter=0;exitX=0;exitY=1;exitDx=0;exitDy=-5;exitPerimeter=0;" parent="1" source="FfUGT-OIGw7-xPJQ7lZI-80" target="FfUGT-OIGw7-xPJQ7lZI-84" edge="1">
          <mxGeometry width="160" relative="1" as="geometry">
            <mxPoint x="1118" y="1490" as="sourcePoint" />
            <mxPoint x="958" y="1490" as="targetPoint" />
          </mxGeometry>
        </mxCell>
        <mxCell id="FfUGT-OIGw7-xPJQ7lZI-86" value="Токен" style="edgeLabel;html=1;align=center;verticalAlign=middle;resizable=0;points=[];" parent="FfUGT-OIGw7-xPJQ7lZI-85" vertex="1" connectable="0">
          <mxGeometry x="0.3918" relative="1" as="geometry">
            <mxPoint x="33" y="-15" as="offset" />
          </mxGeometry>
        </mxCell>
        <mxCell id="FfUGT-OIGw7-xPJQ7lZI-87" value="" style="endArrow=none;dashed=1;html=1;rounded=0;" parent="1" target="FfUGT-OIGw7-xPJQ7lZI-88" edge="1">
          <mxGeometry width="50" height="50" relative="1" as="geometry">
            <mxPoint x="1328" y="2282.3529411764707" as="sourcePoint" />
            <mxPoint x="1328" y="1410" as="targetPoint" />
          </mxGeometry>
        </mxCell>
        <mxCell id="FfUGT-OIGw7-xPJQ7lZI-88" value="" style="html=1;points=[[0,0,0,0,5],[0,1,0,0,-5],[1,0,0,0,5],[1,1,0,0,-5]];perimeter=orthogonalPerimeter;outlineConnect=0;targetShapes=umlLifeline;portConstraint=eastwest;newEdgeStyle={&quot;curved&quot;:0,&quot;rounded&quot;:0};" parent="1" vertex="1">
          <mxGeometry x="1323" y="1570" width="10" height="80" as="geometry" />
        </mxCell>
        <mxCell id="FfUGT-OIGw7-xPJQ7lZI-89" style="edgeStyle=orthogonalEdgeStyle;rounded=0;orthogonalLoop=1;jettySize=auto;html=1;curved=0;exitX=1;exitY=1;exitDx=0;exitDy=-5;exitPerimeter=0;entryX=0;entryY=0;entryDx=0;entryDy=5;entryPerimeter=0;" parent="1" source="FfUGT-OIGw7-xPJQ7lZI-84" target="FfUGT-OIGw7-xPJQ7lZI-88" edge="1">
          <mxGeometry relative="1" as="geometry" />
        </mxCell>
        <mxCell id="FfUGT-OIGw7-xPJQ7lZI-90" value="Отравить сообщение с токеном" style="edgeLabel;html=1;align=center;verticalAlign=middle;resizable=0;points=[];" parent="FfUGT-OIGw7-xPJQ7lZI-89" vertex="1" connectable="0">
          <mxGeometry x="0.1635" y="-5" relative="1" as="geometry">
            <mxPoint x="-15" y="-20" as="offset" />
          </mxGeometry>
        </mxCell>
        <mxCell id="FfUGT-OIGw7-xPJQ7lZI-91" value="" style="endArrow=none;dashed=1;html=1;rounded=0;" parent="1" target="FfUGT-OIGw7-xPJQ7lZI-92" edge="1">
          <mxGeometry width="50" height="50" relative="1" as="geometry">
            <mxPoint x="1128" y="2282.3529411764707" as="sourcePoint" />
            <mxPoint x="1128" y="1510" as="targetPoint" />
          </mxGeometry>
        </mxCell>
        <mxCell id="FfUGT-OIGw7-xPJQ7lZI-92" value="" style="html=1;points=[[0,0,0,0,5],[0,1,0,0,-5],[1,0,0,0,5],[1,1,0,0,-5]];perimeter=orthogonalPerimeter;outlineConnect=0;targetShapes=umlLifeline;portConstraint=eastwest;newEdgeStyle={&quot;curved&quot;:0,&quot;rounded&quot;:0};" parent="1" vertex="1">
          <mxGeometry x="1123" y="1640" width="10" height="80" as="geometry" />
        </mxCell>
        <mxCell id="FfUGT-OIGw7-xPJQ7lZI-93" style="edgeStyle=orthogonalEdgeStyle;rounded=0;orthogonalLoop=1;jettySize=auto;html=1;curved=0;exitX=0;exitY=1;exitDx=0;exitDy=-5;exitPerimeter=0;entryX=1;entryY=0;entryDx=0;entryDy=5;entryPerimeter=0;" parent="1" source="FfUGT-OIGw7-xPJQ7lZI-88" target="FfUGT-OIGw7-xPJQ7lZI-92" edge="1">
          <mxGeometry relative="1" as="geometry" />
        </mxCell>
        <mxCell id="FfUGT-OIGw7-xPJQ7lZI-94" value="&lt;div&gt;Запрос на привязку аккаунта&lt;/div&gt;&lt;div&gt;Telegram к аккаунту системы&lt;/div&gt;" style="edgeLabel;html=1;align=center;verticalAlign=middle;resizable=0;points=[];" parent="FfUGT-OIGw7-xPJQ7lZI-93" vertex="1" connectable="0">
          <mxGeometry x="0.0947" y="3" relative="1" as="geometry">
            <mxPoint x="9" y="-18" as="offset" />
          </mxGeometry>
        </mxCell>
        <mxCell id="FfUGT-OIGw7-xPJQ7lZI-95" value="" style="endArrow=none;dashed=1;html=1;rounded=0;" parent="1" target="FfUGT-OIGw7-xPJQ7lZI-96" edge="1">
          <mxGeometry width="50" height="50" relative="1" as="geometry">
            <mxPoint x="1498" y="2282.3529411764707" as="sourcePoint" />
            <mxPoint x="1498" y="1410" as="targetPoint" />
          </mxGeometry>
        </mxCell>
        <mxCell id="FfUGT-OIGw7-xPJQ7lZI-96" value="" style="html=1;points=[[0,0,0,0,5],[0,1,0,0,-5],[1,0,0,0,5],[1,1,0,0,-5]];perimeter=orthogonalPerimeter;outlineConnect=0;targetShapes=umlLifeline;portConstraint=eastwest;newEdgeStyle={&quot;curved&quot;:0,&quot;rounded&quot;:0};" parent="1" vertex="1">
          <mxGeometry x="1493" y="1710" width="10" height="80" as="geometry" />
        </mxCell>
        <mxCell id="FfUGT-OIGw7-xPJQ7lZI-97" style="edgeStyle=orthogonalEdgeStyle;rounded=0;orthogonalLoop=1;jettySize=auto;html=1;curved=0;exitX=1;exitY=1;exitDx=0;exitDy=-5;exitPerimeter=0;entryX=0;entryY=0;entryDx=0;entryDy=5;entryPerimeter=0;" parent="1" source="FfUGT-OIGw7-xPJQ7lZI-92" target="FfUGT-OIGw7-xPJQ7lZI-96" edge="1">
          <mxGeometry relative="1" as="geometry" />
        </mxCell>
        <mxCell id="FfUGT-OIGw7-xPJQ7lZI-98" value="&lt;div&gt;Сохраненить взаимосвязь между&lt;/div&gt;&lt;div&gt;аккаунтом Telegram и аккаунтом системы&lt;/div&gt; " style="edgeLabel;html=1;align=center;verticalAlign=middle;resizable=0;points=[];" parent="FfUGT-OIGw7-xPJQ7lZI-97" vertex="1" connectable="0">
          <mxGeometry x="0.2944" y="-3" relative="1" as="geometry">
            <mxPoint x="-38" y="-18" as="offset" />
          </mxGeometry>
        </mxCell>
        <mxCell id="FfUGT-OIGw7-xPJQ7lZI-99" style="edgeStyle=orthogonalEdgeStyle;rounded=0;orthogonalLoop=1;jettySize=auto;html=1;curved=0;exitX=1;exitY=0;exitDx=0;exitDy=5;exitPerimeter=0;entryX=1;entryY=1;entryDx=0;entryDy=-5;entryPerimeter=0;" parent="1" source="FfUGT-OIGw7-xPJQ7lZI-88" target="FfUGT-OIGw7-xPJQ7lZI-88" edge="1">
          <mxGeometry relative="1" as="geometry" />
        </mxCell>
        <mxCell id="FfUGT-OIGw7-xPJQ7lZI-100" value="&lt;div&gt;Обработка&lt;/div&gt;&lt;div&gt;сообщения&lt;/div&gt;" style="edgeLabel;html=1;align=center;verticalAlign=middle;resizable=0;points=[];" parent="FfUGT-OIGw7-xPJQ7lZI-99" vertex="1" connectable="0">
          <mxGeometry x="-0.1818" y="1" relative="1" as="geometry">
            <mxPoint x="34" y="10" as="offset" />
          </mxGeometry>
        </mxCell>
        <mxCell id="FfUGT-OIGw7-xPJQ7lZI-101" style="edgeStyle=orthogonalEdgeStyle;rounded=0;orthogonalLoop=1;jettySize=auto;html=1;curved=0;exitX=1;exitY=0;exitDx=0;exitDy=5;exitPerimeter=0;entryX=1;entryY=1;entryDx=0;entryDy=-5;entryPerimeter=0;" parent="1" source="FfUGT-OIGw7-xPJQ7lZI-96" target="FfUGT-OIGw7-xPJQ7lZI-96" edge="1">
          <mxGeometry relative="1" as="geometry" />
        </mxCell>
        <mxCell id="FfUGT-OIGw7-xPJQ7lZI-102" value="&lt;div&gt;Сохранение&lt;/div&gt;" style="edgeLabel;html=1;align=center;verticalAlign=middle;resizable=0;points=[];" parent="FfUGT-OIGw7-xPJQ7lZI-101" vertex="1" connectable="0">
          <mxGeometry x="-0.2364" y="-1" relative="1" as="geometry">
            <mxPoint x="46" y="17" as="offset" />
          </mxGeometry>
        </mxCell>
        <mxCell id="FfUGT-OIGw7-xPJQ7lZI-106" value="" style="html=1;points=[[0,0,0,0,5],[0,1,0,0,-5],[1,0,0,0,5],[1,1,0,0,-5]];perimeter=orthogonalPerimeter;outlineConnect=0;targetShapes=umlLifeline;portConstraint=eastwest;newEdgeStyle={&quot;curved&quot;:0,&quot;rounded&quot;:0};" parent="1" vertex="1">
          <mxGeometry x="1292.94" y="40" width="10" height="80" as="geometry" />
        </mxCell>
        <mxCell id="FfUGT-OIGw7-xPJQ7lZI-107" style="edgeStyle=orthogonalEdgeStyle;rounded=0;orthogonalLoop=1;jettySize=auto;html=1;curved=0;exitX=1;exitY=0;exitDx=0;exitDy=5;exitPerimeter=0;" parent="1" source="FfUGT-OIGw7-xPJQ7lZI-106" target="FfUGT-OIGw7-xPJQ7lZI-106" edge="1">
          <mxGeometry relative="1" as="geometry" />
        </mxCell>
        <mxCell id="FfUGT-OIGw7-xPJQ7lZI-108" value="SearchScreen()" style="edgeLabel;html=1;align=center;verticalAlign=middle;resizable=0;points=[];" parent="FfUGT-OIGw7-xPJQ7lZI-107" vertex="1" connectable="0">
          <mxGeometry x="-0.02" y="2" relative="1" as="geometry">
            <mxPoint x="43" as="offset" />
          </mxGeometry>
        </mxCell>
        <mxCell id="FfUGT-OIGw7-xPJQ7lZI-109" value="" style="endArrow=block;dashed=1;endFill=0;endSize=12;html=1;rounded=0;exitX=0;exitY=1;exitDx=0;exitDy=-5;exitPerimeter=0;entryX=1;entryY=0;entryDx=0;entryDy=5;entryPerimeter=0;" parent="1" target="FfUGT-OIGw7-xPJQ7lZI-111" edge="1">
          <mxGeometry width="160" relative="1" as="geometry">
            <mxPoint x="1292.94" y="115" as="sourcePoint" />
            <mxPoint x="1187.94" y="130" as="targetPoint" />
          </mxGeometry>
        </mxCell>
        <mxCell id="FfUGT-OIGw7-xPJQ7lZI-110" value="bindParamsToSearchScreen()" style="edgeLabel;html=1;align=center;verticalAlign=middle;resizable=0;points=[];" parent="FfUGT-OIGw7-xPJQ7lZI-109" vertex="1" connectable="0">
          <mxGeometry x="0.3918" relative="1" as="geometry">
            <mxPoint x="33" y="-15" as="offset" />
          </mxGeometry>
        </mxCell>
        <mxCell id="FfUGT-OIGw7-xPJQ7lZI-111" value="" style="html=1;points=[[0,0,0,0,5],[0,1,0,0,-5],[1,0,0,0,5],[1,1,0,0,-5]];perimeter=orthogonalPerimeter;outlineConnect=0;targetShapes=umlLifeline;portConstraint=eastwest;newEdgeStyle={&quot;curved&quot;:0,&quot;rounded&quot;:0};" parent="1" vertex="1">
          <mxGeometry x="1112.94" y="110" width="10" height="90" as="geometry" />
        </mxCell>
        <mxCell id="FfUGT-OIGw7-xPJQ7lZI-112" style="edgeStyle=orthogonalEdgeStyle;rounded=0;orthogonalLoop=1;jettySize=auto;html=1;curved=0;exitX=1;exitY=0;exitDx=0;exitDy=5;exitPerimeter=0;" parent="1" source="FfUGT-OIGw7-xPJQ7lZI-111" target="FfUGT-OIGw7-xPJQ7lZI-111" edge="1">
          <mxGeometry relative="1" as="geometry">
            <Array as="points">
              <mxPoint x="1123" y="130" />
              <mxPoint x="1143" y="130" />
              <mxPoint x="1143" y="150" />
            </Array>
            <mxPoint x="1178" y="190" as="targetPoint" />
          </mxGeometry>
        </mxCell>
        <mxCell id="FfUGT-OIGw7-xPJQ7lZI-113" value="SearchScreenView()" style="edgeLabel;html=1;align=center;verticalAlign=middle;resizable=0;points=[];" parent="FfUGT-OIGw7-xPJQ7lZI-112" vertex="1" connectable="0">
          <mxGeometry x="0.437" y="2" relative="1" as="geometry">
            <mxPoint x="55" y="-14" as="offset" />
          </mxGeometry>
        </mxCell>
        <mxCell id="FfUGT-OIGw7-xPJQ7lZI-114" style="edgeStyle=orthogonalEdgeStyle;rounded=0;orthogonalLoop=1;jettySize=auto;html=1;curved=0;exitX=1;exitY=0;exitDx=0;exitDy=5;exitPerimeter=0;" parent="1" edge="1">
          <mxGeometry relative="1" as="geometry">
            <Array as="points">
              <mxPoint x="1123" y="165" />
              <mxPoint x="1143" y="165" />
              <mxPoint x="1143" y="185" />
            </Array>
            <mxPoint x="1123" y="150" as="sourcePoint" />
            <mxPoint x="1123" y="185" as="targetPoint" />
          </mxGeometry>
        </mxCell>
        <mxCell id="FfUGT-OIGw7-xPJQ7lZI-115" value="placeholder(params)" style="edgeLabel;html=1;align=center;verticalAlign=middle;resizable=0;points=[];" parent="FfUGT-OIGw7-xPJQ7lZI-114" vertex="1" connectable="0">
          <mxGeometry x="0.437" y="2" relative="1" as="geometry">
            <mxPoint x="55" y="-14" as="offset" />
          </mxGeometry>
        </mxCell>
        <mxCell id="FfUGT-OIGw7-xPJQ7lZI-116" style="edgeStyle=orthogonalEdgeStyle;rounded=0;orthogonalLoop=1;jettySize=auto;html=1;curved=0;exitX=1;exitY=1;exitDx=0;exitDy=-5;exitPerimeter=0;entryX=0;entryY=0;entryDx=0;entryDy=5;entryPerimeter=0;" parent="1" source="FfUGT-OIGw7-xPJQ7lZI-111" target="FfUGT-OIGw7-xPJQ7lZI-15" edge="1">
          <mxGeometry relative="1" as="geometry" />
        </mxCell>
        <mxCell id="FfUGT-OIGw7-xPJQ7lZI-117" value="Request.send(params)" style="edgeLabel;html=1;align=center;verticalAlign=middle;resizable=0;points=[];" parent="FfUGT-OIGw7-xPJQ7lZI-116" vertex="1" connectable="0">
          <mxGeometry x="-0.2003" y="5" relative="1" as="geometry">
            <mxPoint x="17" y="20" as="offset" />
          </mxGeometry>
        </mxCell>
        <mxCell id="FfUGT-OIGw7-xPJQ7lZI-118" value="" style="html=1;points=[[0,0,0,0,5],[0,1,0,0,-5],[1,0,0,0,5],[1,1,0,0,-5]];perimeter=orthogonalPerimeter;outlineConnect=0;targetShapes=umlLifeline;portConstraint=eastwest;newEdgeStyle={&quot;curved&quot;:0,&quot;rounded&quot;:0};" parent="1" vertex="1">
          <mxGeometry x="943" y="464" width="10" height="80" as="geometry" />
        </mxCell>
        <mxCell id="FfUGT-OIGw7-xPJQ7lZI-119" style="edgeStyle=orthogonalEdgeStyle;rounded=0;orthogonalLoop=1;jettySize=auto;html=1;curved=0;exitX=0;exitY=1;exitDx=0;exitDy=-5;exitPerimeter=0;" parent="1" source="FfUGT-OIGw7-xPJQ7lZI-33" edge="1">
          <mxGeometry relative="1" as="geometry">
            <mxPoint x="953" y="475" as="targetPoint" />
            <Array as="points">
              <mxPoint x="953" y="475" />
            </Array>
          </mxGeometry>
        </mxCell>
        <mxCell id="Zy87MXffUPG1rZkI6VHY-2" value="" style="endArrow=none;dashed=1;html=1;rounded=0;entryX=0.558;entryY=1.001;entryDx=0;entryDy=0;entryPerimeter=0;" parent="1" edge="1">
          <mxGeometry width="50" height="50" relative="1" as="geometry">
            <mxPoint x="949" y="1149" as="sourcePoint" />
            <mxPoint x="948.5799999999999" y="930.04" as="targetPoint" />
          </mxGeometry>
        </mxCell>
        <mxCell id="A46XuQD77EWmYwyPHTC8-1" style="edgeStyle=orthogonalEdgeStyle;rounded=0;orthogonalLoop=1;jettySize=auto;html=1;curved=0;exitX=1;exitY=0;exitDx=0;exitDy=5;exitPerimeter=0;" edge="1" parent="1">
          <mxGeometry relative="1" as="geometry">
            <mxPoint x="464.94" y="245" as="sourcePoint" />
            <mxPoint x="464.94" y="280" as="targetPoint" />
            <Array as="points">
              <mxPoint x="484.94" y="245" />
              <mxPoint x="484.94" y="280" />
            </Array>
          </mxGeometry>
        </mxCell>
        <mxCell id="A46XuQD77EWmYwyPHTC8-2" value="&lt;div&gt;Формирование запроса&lt;/div&gt;&lt;div&gt;на получение&lt;/div&gt;&lt;div&gt;данных о задачах&lt;/div&gt;" style="edgeLabel;html=1;align=center;verticalAlign=middle;resizable=0;points=[];" vertex="1" connectable="0" parent="A46XuQD77EWmYwyPHTC8-1">
          <mxGeometry x="-0.02" y="2" relative="1" as="geometry">
            <mxPoint x="63" y="-7" as="offset" />
          </mxGeometry>
        </mxCell>
      </root>
    </mxGraphModel>
  </diagram>
</mxfile>
